<?xml version="1.0" standalone="no"?>
<!DOCTYPE svg PUBLIC "-//W3C//DTD SVG 20010904//EN"
 "http://www.w3.org/TR/2001/REC-SVG-20010904/DTD/svg10.dtd">
<svg version="1.0" xmlns="http://www.w3.org/2000/svg"
 width="216.000000pt" height="72.000000pt" viewBox="0 0 216.000000 72.000000"
 preserveAspectRatio="xMidYMid meet">

<g transform="translate(0.000000,72.000000) scale(0.100000,-0.100000)"
fill="#000000" stroke="none">
<path d="M762 607 c-26 -33 -143 -268 -137 -277 10 -16 294 -13 300 3 5 12
-128 272 -145 282 -4 3 -12 -1 -18 -8z m67 -141 c28 -51 51 -96 51 -100 0 -3
-47 -6 -105 -6 -58 0 -105 2 -105 5 0 7 101 195 105 195 2 0 26 -42 54 -94z"/>
<path d="M14 565 c-10 -26 6 -35 62 -35 l54 0 0 -140 0 -140 24 0 c13 0 27 7
30 16 3 9 6 71 6 139 l0 124 53 3 c45 3 52 6 55 26 3 22 3 22 -138 22 -114 0
-142 -3 -146 -15z"/>
<path d="M345 567 c-3 -7 -4 -80 -3 -162 l3 -150 105 0 c98 0 105 1 105 20 0
18 -8 20 -77 23 l-78 3 0 44 0 45 59 0 c72 0 91 6 91 31 0 17 -8 19 -75 19
l-75 0 0 45 0 44 78 3 c69 3 77 5 77 23 0 19 -8 20 -103 23 -78 2 -104 0 -107
-11z"/>
<path d="M1005 568 c-3 -8 -4 -81 -3 -163 l3 -150 25 0 c25 0 25 1 30 103 l5
102 43 -80 c29 -53 49 -80 61 -80 12 0 32 27 62 80 l44 81 5 -103 c5 -102 5
-103 30 -103 l25 0 0 160 0 160 -25 0 c-21 0 -33 -15 -80 -102 -30 -56 -57
-103 -60 -103 -3 0 -30 46 -60 103 -42 78 -60 103 -78 105 -12 2 -24 -3 -27
-10z"/>
<path d="M1540 449 l0 -131 34 -34 c32 -32 38 -34 100 -34 58 0 69 3 98 29
l33 29 3 136 4 136 -25 0 c-33 0 -37 -14 -37 -134 0 -126 -10 -146 -74 -146
-70 0 -80 19 -85 161 -3 118 -3 119 -27 119 l-24 0 0 -131z"/>
<path d="M1886 565 c-8 -21 -8 -278 0 -299 3 -9 17 -16 30 -16 23 0 24 3 24
59 l0 58 73 6 c64 5 75 9 100 37 36 40 37 97 3 137 -23 27 -29 28 -124 31 -85
3 -100 1 -106 -13z m182 -47 c7 -7 12 -27 12 -45 0 -40 -21 -53 -89 -53 l-51
0 0 55 0 55 58 0 c32 0 63 -5 70 -12z"/>
<path d="M620 250 c0 -19 7 -20 155 -20 148 0 155 1 155 20 0 19 -7 20 -155
20 -148 0 -155 -1 -155 -20z"/>
</g>
</svg>
